<svg width="40" height="40" viewBox="0 0 40 40" fill="none" xmlns="http://www.w3.org/2000/svg">
<path d="M31.5551 13.1238C31.3306 16.2403 29.0187 18.6411 26.4975 18.6411C23.9764 18.6411 21.6607 16.2411 21.44 13.1238C21.2101 9.88158 23.4607 7.60645 26.4975 7.60645C29.5344 7.60645 31.785 9.94058 31.5551 13.1238Z" stroke="#00FFF2" stroke-width="1.5" stroke-linecap="round" stroke-linejoin="round"/>
<path d="M26.4975 23.5454C21.5035 23.5454 16.7012 26.0259 15.4981 30.8566C15.3387 31.4957 15.7395 32.1279 16.3962 32.1279H36.5996C37.2563 32.1279 37.6548 31.4957 37.4977 30.8566C36.2946 25.9485 31.4922 23.5454 26.4975 23.5454Z" stroke="#00FFF2" stroke-width="1.5" stroke-miterlimit="10"/>
<path d="M16.0759 14.4985C15.8966 16.9874 14.0283 18.9476 12.0145 18.9476C10.0007 18.9476 8.12938 16.9882 7.95313 14.4985C7.76999 11.9092 9.58841 10.0586 12.0145 10.0586C14.4406 10.0586 16.259 11.9567 16.0759 14.4985Z" stroke="#00FFF2" stroke-width="1.5" stroke-linecap="round" stroke-linejoin="round"/>
<path d="M16.5357 23.6987C15.1526 23.065 13.6292 22.8213 12.0146 22.8213C8.02983 22.8213 4.19069 24.8022 3.22899 28.6605C3.10255 29.1708 3.42286 29.6758 3.94701 29.6758H12.551" stroke="#00FFF2" stroke-width="1.5" stroke-miterlimit="10" stroke-linecap="round"/>
</svg>
