<svg width="40" height="40" viewBox="0 0 40 40" fill="none" xmlns="http://www.w3.org/2000/svg">
<path d="M34.9399 13.3281C33.8135 9.7578 32.0104 7.82714 29.823 7.05062C29.2018 6.82993 28.5348 6.78906 27.8728 6.78906H26.8723C25.4374 6.7893 24.038 7.23483 22.8671 8.06418L22.0465 8.64289C21.4091 9.09325 20.6478 9.33507 19.8673 9.33507C19.0869 9.33507 18.3256 9.09325 17.6882 8.64289L16.8675 8.06254C15.6964 7.23378 14.297 6.78883 12.8623 6.78906H11.8619C11.1998 6.78906 10.5328 6.82993 9.90996 7.05062C6.01432 8.43364 3.33494 13.4834 3.52947 24.9399C3.56871 27.2482 4.10818 29.7984 6.19087 30.794C6.90133 31.1355 7.6798 31.3121 8.4681 31.3105C9.35414 31.3251 10.2246 31.0765 10.9693 30.5962C12.4651 29.6169 13.5588 27.9805 15.1445 27.1599C16.099 26.6644 17.1587 26.4059 18.2342 26.4062H21.5021C22.5778 26.4062 23.6371 26.6645 24.5918 27.1582C26.1775 27.9822 27.2728 29.6169 28.7654 30.5962C29.4029 31.0147 30.2285 31.3105 31.2682 31.3105C32.0565 31.3121 32.8349 31.1355 33.5454 30.794C35.6281 29.7984 36.1676 27.2465 36.2068 24.9399C36.2399 23.2479 36.1979 21.5554 36.0809 19.8672M12.5109 14.9629V19.8672M10.0587 17.415H14.963" stroke="#00FFF2" stroke-width="1.5" stroke-linecap="round"/>
<path d="M31.3105 17.0063C31.3105 17.3315 31.1814 17.6434 30.9514 17.8733C30.7215 18.1032 30.4096 18.2324 30.0845 18.2324C29.7593 18.2324 29.4474 18.1032 29.2175 17.8733C28.9876 17.6434 28.8584 17.3315 28.8584 17.0063C28.8584 16.6812 28.9876 16.3693 29.2175 16.1394C29.4474 15.9094 29.7593 15.7803 30.0845 15.7803C30.4096 15.7803 30.7215 15.9094 30.9514 16.1394C31.1814 16.3693 31.3105 16.6812 31.3105 17.0063ZM26.4062 17.0063C26.4062 17.3315 26.2771 17.6434 26.0471 17.8733C25.8172 18.1032 25.5054 18.2324 25.1802 18.2324C24.855 18.2324 24.5431 18.1032 24.3132 17.8733C24.0833 17.6434 23.9541 17.3315 23.9541 17.0063C23.9541 16.6812 24.0833 16.3693 24.3132 16.1394C24.5431 15.9094 24.855 15.7803 25.1802 15.7803C25.5054 15.7803 25.8172 15.9094 26.0471 16.1394C26.2771 16.3693 26.4062 16.6812 26.4062 17.0063ZM27.6323 13.3281C27.9575 13.3281 28.2694 13.4573 28.4993 13.6872C28.7292 13.9172 28.8584 14.229 28.8584 14.5542C28.8584 14.8794 28.7292 15.1912 28.4993 15.4212C28.2694 15.6511 27.9575 15.7803 27.6323 15.7803C27.3071 15.7803 26.9953 15.6511 26.7654 15.4212C26.5354 15.1912 26.4062 14.8794 26.4062 14.5542C26.4062 14.229 26.5354 13.9172 26.7654 13.6872C26.9953 13.4573 27.3071 13.3281 27.6323 13.3281ZM27.6323 18.2324C27.7933 18.2324 27.9528 18.2641 28.1015 18.3258C28.2503 18.3874 28.3854 18.4777 28.4993 18.5915C28.6131 18.7054 28.7035 18.8405 28.7651 18.9893C28.8267 19.1381 28.8584 19.2975 28.8584 19.4585C28.8584 19.6195 28.8267 19.7789 28.7651 19.9277C28.7035 20.0764 28.6131 20.2116 28.4993 20.3255C28.3854 20.4393 28.2503 20.5296 28.1015 20.5912C27.9528 20.6529 27.7933 20.6846 27.6323 20.6846C27.3071 20.6846 26.9953 20.5554 26.7654 20.3255C26.5354 20.0955 26.4062 19.7837 26.4062 19.4585C26.4062 19.1333 26.5354 18.8215 26.7654 18.5915C26.9953 18.3616 27.3071 18.2324 27.6323 18.2324Z" fill="#00FFF2"/>
</svg>
