<svg width="40" height="40" viewBox="0 0 40 40" fill="none" xmlns="http://www.w3.org/2000/svg">
<path d="M28.3066 15.7803L29.3823 15.2424C32.5636 13.6518 34.1558 12.8557 35.3165 13.575C36.4805 14.2943 36.4805 16.0729 36.4805 19.6285V20.1059C36.4805 23.6631 36.4805 25.4401 35.3181 26.1594C34.1542 26.8787 32.5636 26.0826 29.384 24.4919L28.3066 23.9541V15.7803Z" stroke="#00FFF2" stroke-width="1.5"/>
<path d="M16.0459 25.5889V14.1455M16.0459 14.1455L20.1328 19.0498M16.0459 14.1455L11.959 19.0498" stroke="#00FFF2" stroke-width="1.5" stroke-linecap="round" stroke-linejoin="round"/>
<path d="M3.78516 19.0498V20.6846C3.78516 26.058 3.78516 28.7456 5.26952 30.5553C5.54105 30.8861 5.84439 31.1894 6.17518 31.4609C7.9865 32.9453 10.6708 32.9453 16.0459 32.9453C21.4194 32.9453 24.1069 32.9453 25.9166 31.4609C26.2479 31.1885 26.5498 30.8866 26.8223 30.5553C28.3066 28.744 28.3066 26.0597 28.3066 20.6846V19.0498C28.3066 13.6763 28.3066 10.9888 26.8223 9.17909C26.5507 8.84829 26.2474 8.54495 25.9166 8.27343C24.1053 6.78906 21.421 6.78906 16.0459 6.78906C10.6724 6.78906 7.98487 6.78906 6.17518 8.27343C5.84439 8.54495 5.54105 8.84829 5.26952 9.17909C4.56984 10.0324 4.20039 11.0787 4.00421 12.5107" stroke="#00FFF2" stroke-width="1.5" stroke-linecap="round"/>
</svg>
