<svg width="40" height="40" viewBox="0 0 40 40" fill="none" xmlns="http://www.w3.org/2000/svg">
<path d="M10.0586 19.3489C15.4762 13.5014 24.2582 13.5014 29.6758 19.3489M13.3281 22.8751C16.941 18.9778 22.7934 18.9778 26.4062 22.8751M16.5977 26.4062C18.4041 24.4576 21.3319 24.4576 23.1367 26.4062" stroke="#00FFF2" stroke-width="1.5" stroke-linecap="round"/>
<path d="M36.2148 20.2007V22.6872C36.2148 29.0627 36.2148 32.2522 34.2989 34.2335C32.383 36.2148 29.3014 36.2148 23.1367 36.2148H16.5977C10.433 36.2148 7.34979 36.2148 5.43548 34.2335C3.52117 32.2522 3.51953 29.0644 3.51953 22.6872V20.2007C3.51953 16.4587 3.51953 14.5885 4.36961 13.0388C5.21642 11.4874 6.76781 10.5261 9.86896 8.60038L13.1385 6.57164C16.4162 4.53636 18.0559 3.51953 19.8672 3.51953C21.6785 3.51953 23.3165 4.53636 26.5959 6.57164L29.8654 8.60038C32.9666 10.5261 34.518 11.4874 35.3664 13.0388" stroke="#00FFF2" stroke-width="1.5" stroke-linecap="round"/>
</svg>
