<svg width="39" height="39" viewBox="0 0 39 39" fill="none" xmlns="http://www.w3.org/2000/svg">
<path d="M3.25 22.75V26C3.25 30.5955 3.25 32.8949 4.67837 34.3216C6.10512 35.75 8.4045 35.75 13 35.75H26M26 35.75C30.5955 35.75 32.8949 35.75 34.3216 34.3216C35.75 32.8949 35.75 30.5955 35.75 26V19.5C35.75 14.9045 35.75 12.6051 34.3216 11.1784C32.8949 9.75 30.5955 9.75 26 9.75M26 35.75V22.75M26 9.75H13C8.4045 9.75 6.10512 9.75 4.67837 11.1784C3.63512 12.22 3.354 13.7264 3.27762 16.25M26 9.75V16.25M14.625 3.25L19.5 8.9375L24.375 3.25" stroke="#04E5FB" stroke-opacity="0.94" stroke-width="2" stroke-linecap="round"/>
<path d="M32.5 26C32.5 25.569 32.3288 25.1557 32.024 24.851C31.7193 24.5462 31.306 24.375 30.875 24.375C30.444 24.375 30.0307 24.5462 29.726 24.851C29.4212 25.1557 29.25 25.569 29.25 26C29.25 26.431 29.4212 26.8443 29.726 27.149C30.0307 27.4538 30.444 27.625 30.875 27.625C31.306 27.625 31.7193 27.4538 32.024 27.149C32.3288 26.8443 32.5 26.431 32.5 26ZM32.5 19.5C32.5 19.069 32.3288 18.6557 32.024 18.351C31.7193 18.0462 31.306 17.875 30.875 17.875C30.444 17.875 30.0307 18.0462 29.726 18.351C29.4212 18.6557 29.25 19.069 29.25 19.5C29.25 19.931 29.4212 20.3443 29.726 20.649C30.0307 20.9538 30.444 21.125 30.875 21.125C31.306 21.125 31.7193 20.9538 32.024 20.649C32.3288 20.3443 32.5 19.931 32.5 19.5Z" fill="#04E5FB" fill-opacity="0.94"/>
</svg>
