<svg width="40" height="40" viewBox="0 0 40 40" fill="none" xmlns="http://www.w3.org/2000/svg">
<path d="M9.02381 16.9932C7.26317 14.018 6.38366 12.5303 6.96891 11.3467C7.55742 10.1632 9.22325 10.0667 12.5565 9.87545L13.4181 9.82641C14.3662 9.77083 14.8387 9.74467 15.2523 9.52398C15.6642 9.30329 15.9699 8.91585 16.5813 8.1377L17.1371 7.43148C19.2885 4.69652 20.3642 3.32985 21.6001 3.54074C22.8359 3.75162 23.4146 5.39947 24.5704 8.69679M9.73983 22.3356C8.83581 25.7523 8.38298 27.459 9.25758 28.4006C10.1322 29.3422 11.749 28.896 14.9874 28.0001L16.583 27.2252M28.1195 12.5287C31.2092 13.8136 32.7541 14.4577 32.929 15.7704C33.0794 16.8919 32.1492 17.8678 30.248 19.514" stroke="#00FFF2" stroke-width="1.5" stroke-linecap="round"/>
<path d="M26.7969 32.2423C29.2245 32.8733 30.4391 33.1905 31.0946 32.5251C31.7502 31.8598 31.4102 30.6549 30.7334 28.242L30.5568 27.6208C30.3655 26.9342 30.2691 26.5909 30.3165 26.2525C30.3655 25.9125 30.5535 25.615 30.9279 25.0166L31.2712 24.4739C32.5905 22.3732 33.2493 21.3237 32.8079 20.4883C32.3681 19.653 31.1192 19.5843 28.6196 19.4503L27.9722 19.4143C27.2628 19.3767 26.9064 19.3571 26.5974 19.2018C26.2868 19.0465 26.0579 18.7718 25.6002 18.2225L25.1833 17.7239C23.5698 15.7949 22.7639 14.8304 21.8353 14.9775C20.9084 15.1263 20.4752 16.2903 19.6088 18.6182L19.3832 19.2198C19.138 19.8818 19.0137 20.2121 18.7734 20.4556C18.5347 20.6992 18.2045 20.8284 17.5473 21.0867L16.9474 21.3204C14.6309 22.2277 13.4719 22.6822 13.3395 23.6091C13.207 24.536 14.1895 25.324 16.1529 26.8966L16.6597 27.3053C17.2188 27.7516 17.4983 27.9756 17.6585 28.2813C17.822 28.587 17.8465 28.9417 17.8972 29.6496L17.9446 30.2937C18.1244 32.7834 18.216 34.0291 19.0611 34.4541C19.9063 34.8792 20.9477 34.2007 23.0287 32.8472" stroke="#00FFF2" stroke-width="1.5" stroke-linecap="round"/>
</svg>
