<svg width="31" height="17" viewBox="0 0 31 17" fill="none" xmlns="http://www.w3.org/2000/svg">
<path d="M2.53038 0.909474C2.38718 0.774147 2.21872 0.668352 2.03463 0.598129C1.85053 0.527906 1.65441 0.494629 1.45746 0.5002C1.26051 0.505773 1.06658 0.550082 0.886749 0.6306C0.70692 0.711119 0.544712 0.826268 0.409385 0.969475C0.274058 1.11268 0.168262 1.28114 0.0980389 1.46523C0.0278156 1.64933 -0.00546043 1.84545 0.000111101 2.0424C0.00568263 2.23935 0.0499924 2.43328 0.13051 2.61311C0.211029 2.79294 0.326178 2.95515 0.469385 3.09048L13.9694 15.8405C14.2479 16.1038 14.6166 16.2505 14.9999 16.2505C15.3832 16.2505 15.7519 16.1038 16.0304 15.8405L29.5319 3.09047C29.6782 2.95604 29.7964 2.79387 29.8795 2.61338C29.9627 2.43289 30.0091 2.23768 30.0162 2.03909C30.0232 1.84049 29.9908 1.64248 29.9206 1.45654C29.8505 1.27061 29.7442 1.10046 29.6077 0.955977C29.4713 0.811496 29.3075 0.695564 29.1259 0.614915C28.9443 0.534266 28.7484 0.490507 28.5498 0.48618C28.3511 0.481854 28.1536 0.517045 27.9686 0.589711C27.7837 0.662377 27.615 0.771069 27.4724 0.909473L14.9999 12.6875L2.53038 0.909474Z" fill="white"/>
</svg>
