<svg width="45" height="45" viewBox="0 0 45 45" fill="none" xmlns="http://www.w3.org/2000/svg">
<path d="M22.5 2.8125C27.7214 2.8125 32.729 4.88671 36.4212 8.57884C40.1133 12.271 42.1875 17.2786 42.1875 22.5C42.1875 27.7214 40.1133 32.729 36.4212 36.4212C32.729 40.1133 27.7214 42.1875 22.5 42.1875C17.2786 42.1875 12.271 40.1133 8.57884 36.4212C4.88671 32.729 2.8125 27.7214 2.8125 22.5C2.8125 17.2786 4.88671 12.271 8.57884 8.57884C12.271 4.88671 17.2786 2.8125 22.5 2.8125ZM22.5 39.375C26.9755 39.375 31.2677 37.5971 34.4324 34.4324C37.5971 31.2677 39.375 26.9755 39.375 22.5C39.375 18.0245 37.5971 13.7322 34.4324 10.5676C31.2677 7.4029 26.9755 5.625 22.5 5.625C18.0245 5.625 13.7322 7.4029 10.5676 10.5676C7.4029 13.7322 5.625 18.0245 5.625 22.5C5.625 26.9755 7.4029 31.2677 10.5676 34.4324C13.7322 37.5971 18.0245 39.375 22.5 39.375ZM24.6094 31.6406C24.6094 32.2001 24.3871 32.7366 23.9916 33.1322C23.596 33.5278 23.0594 33.75 22.5 33.75C21.9406 33.75 21.404 33.5278 21.0084 33.1322C20.6129 32.7366 20.3906 32.2001 20.3906 31.6406C20.3906 31.0812 20.6129 30.5447 21.0084 30.1491C21.404 29.7535 21.9406 29.5312 22.5 29.5312C23.0594 29.5312 23.596 29.7535 23.9916 30.1491C24.3871 30.5447 24.6094 31.0812 24.6094 31.6406ZM22.5 11.25C22.873 11.25 23.2306 11.3982 23.4944 11.6619C23.7581 11.9256 23.9062 12.2833 23.9062 12.6562V25.3125C23.9062 25.6855 23.7581 26.0431 23.4944 26.3069C23.2306 26.5706 22.873 26.7188 22.5 26.7188C22.127 26.7188 21.7694 26.5706 21.5056 26.3069C21.2419 26.0431 21.0938 25.6855 21.0938 25.3125V12.6562C21.0938 12.2833 21.2419 11.9256 21.5056 11.6619C21.7694 11.3982 22.127 11.25 22.5 11.25Z" fill="#00FFF2"/>
</svg>
