<svg width="45" height="45" viewBox="0 0 45 45" fill="none" xmlns="http://www.w3.org/2000/svg">
<path d="M21.5626 15H37.8676C39.0394 15 39.6244 15 40.0538 15.1875C41.9513 16.0256 41.1038 18.1312 40.7851 19.6462C40.7554 19.7831 40.6941 19.9112 40.6063 20.0202C40.5184 20.1293 40.4062 20.2163 40.2788 20.2744C39.753 20.5166 39.293 20.8813 38.9374 21.3381C38.5818 21.7949 38.3409 22.3303 38.2351 22.8994L37.1232 29.2275C36.6357 32.0119 36.4669 35.9887 34.0294 37.95C32.2388 39.375 29.6607 39.375 24.5026 39.375H20.4976C15.3413 39.375 12.7613 39.375 10.9726 37.95C8.53318 35.9887 8.36631 32.0119 7.87693 29.2275L6.76506 22.8994C6.65919 22.3303 6.41833 21.7949 6.06271 21.3381C5.70709 20.8813 5.24709 20.5166 4.72131 20.2744C4.59387 20.2163 4.48175 20.1293 4.39386 20.0202C4.30597 19.9112 4.24475 19.7831 4.21506 19.6462C3.89631 18.1331 3.04881 16.0256 4.94631 15.1894C5.37568 15 5.96256 15 7.13256 15H14.0626M26.2501 22.5H18.7501M12.1876 20.625L18.7501 5.625M28.1251 5.625L32.8126 15" stroke="#0E1D22" stroke-width="3" stroke-linecap="round" stroke-linejoin="round"/>
</svg>
