<svg width="49" height="49" viewBox="0 0 49 49" fill="none" xmlns="http://www.w3.org/2000/svg">
<path d="M24.5 14.292V26.542" stroke="#00FFF2" stroke-width="2" stroke-linecap="round"/>
<path d="M24.5002 34.7083C25.6277 34.7083 26.5418 33.7942 26.5418 32.6667C26.5418 31.5391 25.6277 30.625 24.5002 30.625C23.3726 30.625 22.4585 31.5391 22.4585 32.6667C22.4585 33.7942 23.3726 34.7083 24.5002 34.7083Z" fill="#00FFF2"/>
<path d="M18.816 6.12516C21.2252 4.76337 22.8054 4.0835 24.5 4.0835C26.7744 4.0835 28.8447 5.3085 32.9872 7.76258L34.3878 8.5915C38.5303 11.0456 40.6006 12.2726 41.7378 14.2918C42.875 16.3131 42.875 18.7631 42.875 23.6712V25.3291C42.875 30.2352 42.875 32.6893 41.7378 34.7085C40.6006 36.7277 38.5303 37.9547 34.3878 40.4068L32.9872 41.2377C28.8447 43.6898 26.7744 44.9168 24.5 44.9168C22.2256 44.9168 20.1553 43.6918 16.0128 41.2377L14.6122 40.4068C10.4697 37.9568 8.39942 36.7277 7.26221 34.7085C6.125 32.6872 6.125 30.2372 6.125 25.3291V23.6712C6.125 18.7631 6.125 16.311 7.26221 14.2918C8.1585 12.6993 9.63463 11.6009 12.25 10.0043" stroke="#00FFF2" stroke-width="2" stroke-linecap="round"/>
</svg>
