<svg width="45" height="45" viewBox="0 0 45 45" fill="none" xmlns="http://www.w3.org/2000/svg">
<path d="M8.4375 18.75C8.4375 11.6794 8.4375 8.14312 10.635 5.9475C12.8325 3.75187 16.3669 3.75 23.4375 3.75H26.25C33.3206 3.75 36.8569 3.75 39.0525 5.9475C41.2481 8.145 41.25 11.6794 41.25 18.75V26.25C41.25 33.3206 41.25 36.8569 39.0525 39.0525C36.855 41.2481 33.3206 41.25 26.25 41.25H23.4375C16.3669 41.25 12.8306 41.25 10.635 39.0525C8.43937 36.855 8.4375 33.3206 8.4375 26.25V18.75Z" stroke="#00FFF2" stroke-width="2" stroke-linecap="round" stroke-linejoin="round"/>
<path d="M24.8438 27.1875H24.8606M24.8606 23.0475V17.8125M8.4375 11.25H3.75M8.4375 22.5H3.75M8.4375 33.75H3.75M34.2188 22.5C34.2188 24.9864 33.231 27.371 31.4729 29.1291C29.7147 30.8873 27.3302 31.875 24.8438 31.875C22.3573 31.875 19.9728 30.8873 18.2146 29.1291C16.4565 27.371 15.4688 24.9864 15.4688 22.5C15.4688 20.0136 16.4565 17.629 18.2146 15.8709C19.9728 14.1127 22.3573 13.125 24.8438 13.125C27.3302 13.125 29.7147 14.1127 31.4729 15.8709C33.231 17.629 34.2188 20.0136 34.2188 22.5Z" stroke="#00FFF2" stroke-width="2" stroke-linecap="round" stroke-linejoin="round"/>
</svg>
