<svg width="30" height="30" viewBox="0 0 30 30" fill="none" xmlns="http://www.w3.org/2000/svg">
<g clip-path="url(#clip0_75_915)">
<path d="M10.4508 0.986913C7.45335 2.02676 4.86834 4.00043 3.07548 6.61801C1.28262 9.23559 0.376419 12.3591 0.489976 15.5298C0.603533 18.7005 1.73087 21.7512 3.70638 24.2338C5.6819 26.7164 8.40148 28.5001 11.4657 29.3229C13.9499 29.9639 16.5526 29.992 19.05 29.4049C21.3125 28.8967 23.4042 27.8096 25.1203 26.2502C26.9065 24.5776 28.2029 22.4498 28.8703 20.0955C29.5958 17.5354 29.7249 14.843 29.2477 12.2252H15.2977V18.0119H23.3766C23.2151 18.9349 22.8691 19.8157 22.3593 20.6018C21.8495 21.3879 21.1863 22.0631 20.4094 22.5869C19.4229 23.2395 18.3108 23.6786 17.1446 23.876C15.9749 24.0935 14.7752 24.0935 13.6055 23.876C12.42 23.6309 11.2985 23.1416 10.3125 22.4393C8.72851 21.318 7.53912 19.725 6.9141 17.8877C6.2785 16.016 6.2785 13.9868 6.9141 12.115C7.359 10.803 8.09449 9.60848 9.06566 8.62051C10.177 7.46913 11.5841 6.64612 13.1324 6.24178C14.6808 5.83743 16.3106 5.86738 17.843 6.32832C19.0401 6.6958 20.1348 7.33786 21.0399 8.20332C21.9508 7.29707 22.8602 6.38848 23.768 5.47754C24.2368 4.98769 24.7477 4.52129 25.2094 4.01973C23.8279 2.73412 22.2063 1.73377 20.4375 1.07598C17.2165 -0.0935799 13.6922 -0.125011 10.4508 0.986913Z" fill="#0E1D22"/>
</g>
<defs>
<clipPath id="clip0_75_915">
<rect width="30" height="30" fill="white"/>
</clipPath>
</defs>
</svg>
