<svg width="33" height="33" viewBox="0 0 33 33" fill="none" xmlns="http://www.w3.org/2000/svg">
<path d="M17.9133 2.75C19.4602 2.75412 20.2453 2.76238 20.9232 2.78163L21.1899 2.79125C21.4979 2.80225 21.8018 2.816 22.1689 2.8325C23.6319 2.90125 24.6302 3.13225 25.5061 3.47188C26.4136 3.82113 27.1781 4.29412 27.9426 5.05725C28.642 5.74438 29.1831 6.5759 29.5279 7.49375C29.8676 8.36962 30.0986 9.36787 30.1673 10.8322C30.1838 11.198 30.1976 11.5019 30.2086 11.8113L30.2168 12.078C30.2374 12.7545 30.2457 13.5396 30.2484 15.0865L30.2498 16.1123V17.9135C30.2532 18.9164 30.2426 19.9194 30.2182 20.922L30.2099 21.1887C30.1989 21.4981 30.1852 21.802 30.1687 22.1677C30.0999 23.6321 29.8662 24.629 29.5279 25.5062C29.1831 26.4241 28.642 27.2556 27.9426 27.9428C27.2554 28.6422 26.4239 29.1833 25.5061 29.5281C24.6302 29.8678 23.6319 30.0988 22.1689 30.1675L21.1899 30.2087L20.9232 30.217C20.2453 30.2362 19.4602 30.2459 17.9133 30.2486L16.8876 30.25H15.0877C14.0843 30.2535 13.0809 30.243 12.0778 30.2184L11.8111 30.2101C11.4846 30.1978 11.1583 30.1836 10.8321 30.1675C9.36906 30.0988 8.37081 29.8678 7.49356 29.5281C6.5762 29.1831 5.74516 28.642 5.05843 27.9428C4.35848 27.2558 3.81696 26.4242 3.47168 25.5062C3.13206 24.6304 2.90106 23.6321 2.83231 22.1677L2.79106 21.1887L2.78418 20.922C2.75883 19.9194 2.74737 18.9164 2.74981 17.9135V15.0865C2.746 14.0836 2.75608 13.0806 2.78006 12.078L2.78968 11.8113C2.80068 11.5019 2.81443 11.198 2.83093 10.8322C2.89968 9.36787 3.13068 8.371 3.47031 7.49375C3.81639 6.57552 4.35886 5.74397 5.05981 5.05725C5.74614 4.35813 6.57669 3.8171 7.49356 3.47188C8.37081 3.13225 9.36768 2.90125 10.8321 2.8325C11.1978 2.816 11.5031 2.80225 11.8111 2.79125L12.0778 2.783C13.0804 2.75857 14.0834 2.74803 15.0863 2.75137L17.9133 2.75ZM16.4998 9.625C14.6764 9.625 12.9278 10.3493 11.6384 11.6386C10.3491 12.928 9.62481 14.6766 9.62481 16.5C9.62481 18.3234 10.3491 20.072 11.6384 21.3614C12.9278 22.6507 14.6764 23.375 16.4998 23.375C18.3232 23.375 20.0719 22.6507 21.3612 21.3614C22.6505 20.072 23.3748 18.3234 23.3748 16.5C23.3748 14.6766 22.6505 12.928 21.3612 11.6386C20.0719 10.3493 18.3232 9.625 16.4998 9.625ZM16.4998 12.375C17.0415 12.3749 17.5779 12.4815 18.0784 12.6887C18.5789 12.896 19.0337 13.1997 19.4168 13.5827C19.7999 13.9657 20.1038 14.4204 20.3112 14.9208C20.5186 15.4212 20.6254 15.9576 20.6255 16.4993C20.6256 17.041 20.519 17.5774 20.3118 18.0779C20.1045 18.5784 19.8008 19.0332 19.4178 19.4163C19.0348 19.7994 18.5801 20.1034 18.0797 20.3107C17.5793 20.5181 17.0429 20.6249 16.5012 20.625C15.4072 20.625 14.358 20.1904 13.5844 19.4168C12.8108 18.6432 12.3762 17.594 12.3762 16.5C12.3762 15.406 12.8108 14.3568 13.5844 13.5832C14.358 12.8096 15.4072 12.375 16.5012 12.375M23.7199 7.5625C23.2641 7.5625 22.8269 7.74358 22.5046 8.06591C22.1823 8.38824 22.0012 8.82541 22.0012 9.28125C22.0012 9.73709 22.1823 10.1743 22.5046 10.4966C22.8269 10.8189 23.2641 11 23.7199 11C24.1758 11 24.6129 10.8189 24.9353 10.4966C25.2576 10.1743 25.4387 9.73709 25.4387 9.28125C25.4387 8.82541 25.2576 8.38824 24.9353 8.06591C24.6129 7.74358 24.1758 7.5625 23.7199 7.5625Z" fill="#0E1D22"/>
</svg>
