<svg width="33" height="33" viewBox="0 0 33 33" fill="none" xmlns="http://www.w3.org/2000/svg">
<path fill-rule="evenodd" clip-rule="evenodd" d="M27.1931 6.0912C27.5329 5.94819 27.9048 5.89887 28.2702 5.94836C28.6355 5.99786 28.9809 6.14437 29.2703 6.37264C29.5598 6.60092 29.7828 6.90261 29.9162 7.24632C30.0495 7.59002 30.0882 7.96318 30.0284 8.32695L26.9099 27.2428C26.6074 29.0675 24.6054 30.1138 22.932 29.205C21.5323 28.4446 19.4533 27.2731 17.5833 26.0507C16.6483 25.4388 13.7841 23.4795 14.1361 22.0852C14.4386 20.8931 19.2511 16.4133 22.0011 13.75C23.0805 12.7036 22.5883 12.1 21.3136 13.0625C18.1484 15.4522 13.0664 19.0863 11.3861 20.1093C9.90389 21.0113 9.13114 21.1653 8.20714 21.0113C6.52139 20.7308 4.95802 20.2963 3.68202 19.767C1.95777 19.052 2.04164 16.6815 3.68064 15.9912L27.1931 6.0912Z" fill="#0E1D22"/>
</svg>
