<svg width="33" height="33" viewBox="0 0 33 33" fill="none" xmlns="http://www.w3.org/2000/svg">
<path fill-rule="evenodd" clip-rule="evenodd" d="M22.9297 3.61344C18.6037 2.64643 14.1176 2.64643 9.79158 3.61344L9.32545 3.71657C8.10827 3.9879 6.99028 4.59172 6.09594 5.46081C5.2016 6.3299 4.56602 7.43015 4.25995 8.63907C3.1653 12.9603 3.1653 17.4862 4.25995 21.8074C4.55187 22.9604 5.14377 24.0155 5.97551 24.8656C6.80724 25.7156 7.84918 26.3304 8.99545 26.6474L9.63483 30.4644C9.65524 30.5856 9.70777 30.6992 9.78695 30.7932C9.86613 30.8872 9.96907 30.9582 10.085 30.999C10.201 31.0397 10.3258 31.0486 10.4463 31.0247C10.5669 31.0008 10.6789 30.945 10.7706 30.8632L14.5257 27.5041C17.3446 27.6742 20.1734 27.4488 22.9297 26.8344L23.3972 26.7313C24.6144 26.46 25.7324 25.8562 26.6267 24.9871C27.5211 24.118 28.1566 23.0177 28.4627 21.8088C29.5574 17.4876 29.5574 12.9617 28.4627 8.64044C28.1565 7.43135 27.5207 6.33098 26.6261 5.46187C25.7315 4.59277 24.6133 3.98904 23.3958 3.71794L22.9297 3.61344ZM10.9521 8.52769C10.6965 8.49027 10.4359 8.54172 10.2137 8.67344H10.1945C9.67883 8.97594 9.21408 9.35682 8.81808 9.80507C8.48808 10.1859 8.30933 10.5709 8.26258 10.9422C8.23508 11.1622 8.25433 11.3849 8.31895 11.5953L8.3437 11.6091C8.71495 12.6994 9.19895 13.7486 9.7902 14.7358C10.5529 16.1223 11.491 17.4047 12.5815 18.5514L12.6145 18.5982L12.6667 18.6367L12.6983 18.6738L12.7368 18.7068C13.8877 19.8004 15.1731 20.743 16.5621 21.5118C18.1502 22.3767 19.1141 22.7851 19.693 22.9556V22.9638C19.8621 23.0161 20.0161 23.0394 20.1715 23.0394C20.6647 23.0041 21.1317 22.8035 21.497 22.4702C21.9438 22.0742 22.322 21.6081 22.6162 21.0897V21.0801C22.8926 20.5576 22.7991 20.0653 22.4003 19.7312C21.6001 19.0305 20.7339 18.4089 19.814 17.8749C19.198 17.5408 18.5723 17.7429 18.3193 18.0812L17.779 18.7632C17.5012 19.1014 16.998 19.0547 16.998 19.0547L16.9842 19.0629C13.2291 18.1046 12.2267 14.3027 12.2267 14.3027C12.2267 14.3027 12.18 13.7857 12.5278 13.5217L13.2043 12.9772C13.5288 12.7132 13.7543 12.0889 13.4065 11.4729C12.8737 10.5537 12.2535 9.68797 11.5543 8.88794C11.4014 8.70008 11.1872 8.57206 10.9493 8.52632M17.2963 6.87494C17.114 6.87494 16.9391 6.94737 16.8102 7.0763C16.6813 7.20524 16.6088 7.3801 16.6088 7.56244C16.6088 7.74478 16.6813 7.91964 16.8102 8.04858C16.9391 8.17751 17.114 8.24994 17.2963 8.24994C19.0357 8.24994 20.4795 8.81782 21.6221 9.90682C22.2092 10.5022 22.6671 11.2076 22.9668 11.9803C23.268 12.7544 23.4055 13.5808 23.3697 14.4086C23.3659 14.4988 23.3799 14.589 23.411 14.6739C23.442 14.7587 23.4895 14.8366 23.5507 14.9032C23.6742 15.0375 23.846 15.1173 24.0283 15.1249C24.2107 15.1326 24.3886 15.0675 24.5229 14.944C24.6573 14.8205 24.737 14.6487 24.7447 14.4663C24.7857 13.4482 24.6168 12.4326 24.2483 11.4826C23.8782 10.5277 23.3146 9.65981 22.5928 8.93332L22.5791 8.91957C21.1615 7.56519 19.3671 6.87494 17.2963 6.87494ZM17.2496 9.13544C17.0672 9.13544 16.8924 9.20787 16.7634 9.3368C16.6345 9.46574 16.5621 9.6406 16.5621 9.82294C16.5621 10.0053 16.6345 10.1801 16.7634 10.3091C16.8924 10.438 17.0672 10.5104 17.2496 10.5104H17.273C18.527 10.5998 19.44 11.0178 20.0793 11.7039C20.7352 12.4107 21.0748 13.2893 21.0487 14.3756C21.0445 14.5579 21.1129 14.7344 21.2389 14.8663C21.3649 14.9982 21.5381 15.0747 21.7204 15.0789C21.9027 15.0831 22.0793 15.0147 22.2112 14.8887C22.3431 14.7627 22.4195 14.5895 22.4237 14.4072C22.4567 12.9813 21.9975 11.7507 21.0872 10.7689V10.7662C20.1563 9.76794 18.879 9.23994 17.3417 9.13682L17.3183 9.13407L17.2496 9.13544ZM17.2235 11.4386C17.1314 11.4304 17.0387 11.441 16.9509 11.4695C16.863 11.498 16.7818 11.5439 16.7121 11.6044C16.6424 11.665 16.5856 11.739 16.5451 11.822C16.5046 11.9051 16.4813 11.9954 16.4765 12.0876C16.4717 12.1799 16.4855 12.2721 16.5171 12.3589C16.5488 12.4457 16.5976 12.5252 16.6606 12.5927C16.7237 12.6602 16.7997 12.7143 16.8841 12.7518C16.9685 12.7892 17.0596 12.8093 17.152 12.8108C17.7267 12.8411 18.0938 13.0143 18.3248 13.2467C18.5572 13.4804 18.7305 13.8558 18.7621 14.4429C18.7638 14.5352 18.7841 14.6262 18.8217 14.7104C18.8593 14.7947 18.9135 14.8705 18.981 14.9334C19.0486 14.9963 19.1281 15.0449 19.2148 15.0764C19.3016 15.1079 19.3938 15.1216 19.4859 15.1167C19.5781 15.1118 19.6683 15.0884 19.7512 15.0479C19.8341 15.0074 19.908 14.9506 19.9685 14.881C20.029 14.8113 20.0749 14.7301 20.1034 14.6424C20.1319 14.5546 20.1424 14.462 20.1343 14.3701C20.0903 13.5451 19.8318 12.8163 19.3025 12.2801C18.7703 11.7438 18.0457 11.4826 17.2235 11.4386Z" fill="#0F1E23"/>
</svg>
