<svg width="30" height="26" viewBox="0 0 30 26" fill="none" xmlns="http://www.w3.org/2000/svg">
<path d="M28.6279 6.30109C28.3008 5.10011 27.3369 4.15426 26.1131 3.83327C23.8949 3.25 15.0001 3.25 15.0001 3.25C15.0001 3.25 6.10528 3.25 3.887 3.83327C2.6632 4.15431 1.69934 5.10011 1.37221 6.30109C0.777832 8.47793 0.777832 13.0197 0.777832 13.0197C0.777832 13.0197 0.777832 17.5615 1.37221 19.7383C1.69934 20.9393 2.6632 21.8457 3.887 22.1667C6.10528 22.75 15.0001 22.75 15.0001 22.75C15.0001 22.75 23.8949 22.75 26.1131 22.1667C27.3369 21.8457 28.3008 20.9393 28.6279 19.7383C29.2223 17.5615 29.2223 13.0197 29.2223 13.0197C29.2223 13.0197 29.2223 8.47793 28.6279 6.30109ZM12.091 17.1433V8.89611L19.5253 13.0198L12.091 17.1433Z" fill="#0E1D22"/>
</svg>
