<svg width="45" height="45" viewBox="0 0 45 45" fill="none" xmlns="http://www.w3.org/2000/svg">
<g clip-path="url(#clip0_75_888)">
<path d="M5.625 16.875H33.75V28.125H5.625V16.875Z" fill="#04E5FB" fill-opacity="0.94"/>
<path d="M5.625 11.25C4.13316 11.25 2.70242 11.8426 1.64752 12.8975C0.592632 13.9524 0 15.3832 0 16.875L0 28.125C0 29.6168 0.592632 31.0476 1.64752 32.1025C2.70242 33.1574 4.13316 33.75 5.625 33.75H33.75C35.2418 33.75 36.6726 33.1574 37.7275 32.1025C38.7824 31.0476 39.375 29.6168 39.375 28.125V16.875C39.375 15.3832 38.7824 13.9524 37.7275 12.8975C36.6726 11.8426 35.2418 11.25 33.75 11.25H5.625ZM33.75 14.0625C34.4959 14.0625 35.2113 14.3588 35.7387 14.8863C36.2662 15.4137 36.5625 16.1291 36.5625 16.875V28.125C36.5625 28.8709 36.2662 29.5863 35.7387 30.1137C35.2113 30.6412 34.4959 30.9375 33.75 30.9375H5.625C4.87908 30.9375 4.16371 30.6412 3.63626 30.1137C3.10882 29.5863 2.8125 28.8709 2.8125 28.125V16.875C2.8125 16.1291 3.10882 15.4137 3.63626 14.8863C4.16371 14.3588 4.87908 14.0625 5.625 14.0625H33.75ZM45 22.5C45 23.6189 44.5555 24.6919 43.7644 25.4831C42.9732 26.2743 41.9001 26.7187 40.7812 26.7188V18.2812C41.9001 18.2812 42.9732 18.7257 43.7644 19.5169C44.5555 20.3081 45 21.3811 45 22.5Z" fill="#04E5FB" fill-opacity="0.94"/>
</g>
<defs>
<clipPath id="clip0_75_888">
<rect width="45" height="45" fill="white"/>
</clipPath>
</defs>
</svg>
