<svg width="45" height="45" viewBox="0 0 45 45" fill="none" xmlns="http://www.w3.org/2000/svg">
<path d="M5.625 35.625H39.375V39.375H5.625V35.625ZM11.25 30C13.3125 30 15 28.3125 15 26.25C15 25.3125 14.625 24.375 14.0625 23.8125L16.5 18.75H16.875C17.8125 18.75 18.75 18.375 19.3125 17.8125L24.375 20.4375V20.625C24.375 22.6875 26.0625 24.375 28.125 24.375C30.1875 24.375 31.875 22.6875 31.875 20.625C31.875 19.6875 31.5 18.9375 30.9375 18.1875L33.375 13.125H33.75C35.8125 13.125 37.5 11.4375 37.5 9.375C37.5 7.3125 35.8125 5.625 33.75 5.625C31.6875 5.625 30 7.3125 30 9.375C30 10.3125 30.375 11.25 30.9375 11.8125L28.5 16.875H28.125C27.1875 16.875 26.25 17.25 25.6875 17.8125L20.625 15.375V15C20.625 12.9375 18.9375 11.25 16.875 11.25C14.8125 11.25 13.125 12.9375 13.125 15C13.125 15.9375 13.5 16.875 14.0625 17.4375L11.625 22.5H11.25C9.1875 22.5 7.5 24.1875 7.5 26.25C7.5 28.3125 9.1875 30 11.25 30Z" fill="#00FFF2"/>
</svg>
