<svg width="43" height="43" viewBox="0 0 43 43" fill="none" xmlns="http://www.w3.org/2000/svg">
<path d="M24.1877 34.2657C24.1877 34.7972 24.0301 35.3168 23.7348 35.7588C23.4395 36.2007 23.0198 36.5452 22.5287 36.7486C22.0376 36.952 21.4973 37.0052 20.9759 36.9015C20.4546 36.7978 19.9757 36.5419 19.5999 36.166C19.224 35.7902 18.9681 35.3113 18.8644 34.79C18.7607 34.2687 18.8139 33.7283 19.0173 33.2372C19.2207 32.7461 19.5652 32.3264 20.0071 32.0311C20.4491 31.7358 20.9687 31.5782 21.5002 31.5782C22.213 31.5782 22.8966 31.8613 23.4006 32.3653C23.9046 32.8693 24.1877 33.5529 24.1877 34.2657ZM40.2472 14.0943C34.9614 9.75914 28.3364 7.38989 21.5002 7.38989C14.664 7.38989 8.03909 9.75914 2.75324 14.0943C2.54865 14.2623 2.37915 14.4689 2.25442 14.7024C2.12969 14.9359 2.05216 15.1916 2.02627 15.4551C2.00038 15.7185 2.02663 15.9845 2.10352 16.2378C2.18041 16.4911 2.30644 16.7267 2.47441 16.9313C2.64238 17.1359 2.84901 17.3054 3.08249 17.4301C3.31596 17.5549 3.57172 17.6324 3.83516 17.6583C4.0986 17.6842 4.36456 17.6579 4.61785 17.581C4.87115 17.5041 5.10682 17.3781 5.31141 17.2101C9.87618 13.467 15.597 11.4214 21.5002 11.4214C27.4035 11.4214 33.1243 13.467 37.6891 17.2101C37.8936 17.3781 38.1293 17.5041 38.3826 17.581C38.6359 17.6579 38.9019 17.6842 39.1653 17.6583C39.4287 17.6324 39.6845 17.5549 39.918 17.4301C40.1515 17.3054 40.3581 17.1359 40.5261 16.9313C40.694 16.7267 40.8201 16.4911 40.8969 16.2378C40.9738 15.9845 41.0001 15.7185 40.9742 15.4551C40.9483 15.1916 40.8708 14.9359 40.746 14.7024C40.6213 14.4689 40.4518 14.2623 40.2472 14.0943ZM34.8453 20.0958C31.0471 17.0889 26.3447 15.4528 21.5002 15.4528C16.6558 15.4528 11.9534 17.0889 8.15512 20.0958C7.7466 20.4312 7.48612 20.9135 7.42979 21.439C7.37346 21.9645 7.52579 22.4911 7.85395 22.9054C8.18212 23.3197 8.65987 23.5885 9.18432 23.6539C9.70876 23.7194 10.2379 23.5762 10.6579 23.2553C13.7438 20.8124 17.5644 19.4833 21.5002 19.4833C25.4361 19.4833 29.2566 20.8124 32.3426 23.2553C32.7625 23.5762 33.2917 23.7194 33.8162 23.6539C34.3406 23.5885 34.8183 23.3197 35.1465 22.9054C35.4747 22.4911 35.627 21.9645 35.5707 21.439C35.5143 20.9135 35.2539 20.4312 34.8453 20.0958ZM29.4065 26.0856C27.1088 24.4152 24.341 23.5155 21.5002 23.5155C18.6595 23.5155 15.8917 24.4152 13.5939 26.0856C13.1618 26.4006 12.8725 26.8743 12.7897 27.4025C12.7068 27.9308 12.8372 28.4703 13.1522 28.9024C13.4671 29.3346 13.9409 29.6239 14.4691 29.7067C14.9974 29.7896 15.5369 29.6592 15.969 29.3442C17.5765 28.1755 19.5128 27.5461 21.5002 27.5461C23.4876 27.5461 25.424 28.1755 27.0314 29.3442C27.2454 29.5001 27.488 29.6124 27.7453 29.6746C28.0027 29.7368 28.2698 29.7477 28.5314 29.7067C28.7929 29.6657 29.0438 29.5735 29.2698 29.4355C29.4958 29.2976 29.6923 29.1164 29.8483 28.9024C30.0042 28.6885 30.1165 28.4459 30.1787 28.1885C30.2409 27.9312 30.2518 27.6641 30.2108 27.4025C30.1698 27.141 30.0776 26.89 29.9396 26.6641C29.8016 26.4381 29.6205 26.2416 29.4065 26.0856Z" fill="#04E5FB" fill-opacity="0.94"/>
</svg>
