<svg width="45" height="45" viewBox="0 0 45 45" fill="none" xmlns="http://www.w3.org/2000/svg">
<g clip-path="url(#clip0_75_668)">
<path d="M41.972 16.1419C41.0168 15.1834 39.8815 14.4233 38.6313 13.9055C37.3811 13.3877 36.0408 13.1225 34.6876 13.125C31.9306 13.1191 29.2832 14.2036 27.3226 16.1419L22.5001 20.7975L17.6776 16.1438C16.235 14.7026 14.3974 13.7214 12.3973 13.3243C10.3971 12.9272 8.32417 13.132 6.44039 13.9129C4.55662 14.6937 2.94663 16.0155 1.81393 17.7111C0.681222 19.4068 0.0766602 21.4002 0.0766602 23.4394C0.0766602 25.4786 0.681222 27.472 1.81393 29.1677C2.94663 30.8633 4.55662 32.1851 6.44039 32.9659C8.32417 33.7468 10.3971 33.9516 12.3973 33.5545C14.3974 33.1574 16.235 32.1762 17.6776 30.735L22.5001 25.9313L27.3226 30.735C28.2768 31.7141 29.4158 32.4941 30.6735 33.03C31.9312 33.566 33.2827 33.8471 34.6498 33.8573C36.0169 33.8674 37.3724 33.6063 38.6379 33.089C39.9034 32.5718 41.0538 31.8087 42.0224 30.8439C42.9911 29.8791 43.7587 28.7318 44.281 27.4684C44.8033 26.2049 45.0698 24.8504 45.0651 23.4833C45.0604 22.1162 44.7846 20.7636 44.2537 19.5037C43.7227 18.2439 42.9472 17.1 41.972 16.1419ZM15.0282 28.095C13.785 29.3282 12.1049 30.0201 10.3539 30.0201C8.6028 30.0201 6.92268 29.3282 5.67949 28.095C4.46296 26.8519 3.78668 25.1785 3.79784 23.4392C3.809 21.6999 4.5067 20.0354 5.73908 18.8079C6.97147 17.5805 8.63878 16.8895 10.3781 16.8853C12.1175 16.8811 13.7881 17.5641 15.0264 18.7856L19.6876 23.4244L15.0282 28.095ZM39.3207 28.095C38.0776 29.3276 36.3979 30.0192 34.6473 30.0192C32.8967 30.0192 31.217 29.3276 29.9739 28.095L25.3126 23.4263L29.9739 18.7838C31.217 17.5512 32.8967 16.8596 34.6473 16.8596C36.3979 16.8596 38.0776 17.5512 39.3207 18.7838C39.9331 19.3944 40.4189 20.1199 40.7504 20.9186C41.0819 21.7174 41.2525 22.5737 41.2525 23.4385C41.2525 24.3032 41.0819 25.1595 40.7504 25.9583C40.4189 26.757 39.9331 27.4825 39.3207 28.0931" fill="#00FFF2"/>
</g>
<defs>
<clipPath id="clip0_75_668">
<rect width="45" height="45" fill="white"/>
</clipPath>
</defs>
</svg>
