<svg width="45" height="45" viewBox="0 0 45 45" fill="none" xmlns="http://www.w3.org/2000/svg">
<path d="M5.625 18.15V16.7062C5.625 13.8994 5.625 12.495 6.1575 11.31C6.48562 10.5787 6.95437 9.91875 7.54125 9.36187C8.49 8.46 9.83625 7.96687 12.5288 6.98062L18.0563 4.95937C20.2538 4.15125 21.3525 3.75 22.5 3.75C23.6475 3.75 24.7462 4.15313 26.9437 4.9575L32.4713 6.98062C35.1638 7.965 36.51 8.45812 37.4588 9.36C38.0456 9.91687 38.5144 10.5787 38.8425 11.31C39.375 12.4931 39.375 13.8975 39.375 16.7044V18.1519C39.375 22.6575 39.375 24.9112 38.8181 26.9737C38.1269 29.5315 36.8231 31.8824 35.0194 33.8231C33.5531 35.4056 31.6219 36.6375 27.7538 39.1012C26.0231 40.2037 25.1588 40.7569 24.2381 41.0137C23.1011 41.3309 21.8989 41.3309 20.7619 41.0137C19.8431 40.7569 18.9769 40.2037 17.2462 39.1012C13.38 36.6375 11.445 35.4075 9.98062 33.8231C8.17692 31.8824 6.87309 29.5315 6.18187 26.9737C5.625 24.9112 5.625 22.6556 5.625 18.15Z" stroke="#00FFF2" stroke-width="3" stroke-linecap="round" stroke-linejoin="round"/>
<path d="M20.5502 26.15L29.0252 17.675C29.2252 17.475 29.4585 17.375 29.7252 17.375C29.9918 17.375 30.2252 17.475 30.4252 17.675C30.6252 17.875 30.7252 18.1127 30.7252 18.388C30.7252 18.6633 30.6252 18.9007 30.4252 19.1L21.2502 28.3C21.0502 28.5 20.8168 28.6 20.5502 28.6C20.2835 28.6 20.0502 28.5 19.8502 28.3L15.5502 24C15.3502 23.8 15.2542 23.5627 15.2622 23.288C15.2702 23.0133 15.3745 22.7757 15.5752 22.575C15.7758 22.3743 16.0135 22.2743 16.2882 22.275C16.5628 22.2757 16.8002 22.3757 17.0002 22.575L20.5502 26.15Z" fill="#04E5FB" fill-opacity="0.94"/>
</svg>
