<svg width="67" height="66" viewBox="0 0 67 66" fill="none" xmlns="http://www.w3.org/2000/svg">
<path d="M22.5 60.4999H44.5C52.277 60.4999 56.1683 60.4999 58.5828 58.0854C61 55.6654 61 51.7796 61 43.9999V41.2499C61 33.4729 61 29.5844 58.5828 27.1671C56.4708 25.0551 53.2312 24.7884 47.25 24.7554M19.75 24.7554C13.7688 24.7884 10.5292 25.0551 8.41725 27.1671C6 29.5844 6 33.4729 6 41.2499V43.9999C6 51.7796 6 55.6681 8.41725 58.0854C9.24225 58.9104 10.2378 59.4521 11.5 59.8096" stroke="#00FFF2" stroke-width="4.4" stroke-linecap="round"/>
<path d="M33.5 5.5V41.25M33.5 41.25L25.25 31.625M33.5 41.25L41.75 31.625" stroke="#00FFF2" stroke-width="4.4" stroke-linecap="round" stroke-linejoin="round"/>
</svg>
