<svg width="66" height="66" viewBox="0 0 66 66" fill="none" xmlns="http://www.w3.org/2000/svg">
<g clip-path="url(#clip0_75_764)">
<path d="M43.3125 33H22.6875C21.5935 33 20.5443 33.4346 19.7707 34.2082C18.9971 34.9818 18.5625 36.031 18.5625 37.125V49.5C18.5625 50.594 18.9971 51.6432 19.7707 52.4168C20.5443 53.1904 21.5935 53.625 22.6875 53.625H30.9375V57.75H24.75V61.875H41.25V57.75H35.0625V53.625H43.3125C44.4065 53.625 45.4557 53.1904 46.2293 52.4168C47.0029 51.6432 47.4375 50.594 47.4375 49.5V37.125C47.4375 36.031 47.0029 34.9818 46.2293 34.2082C45.4557 33.4346 44.4065 33 43.3125 33ZM22.6875 49.5V37.125H43.3125L43.3166 49.5H22.6875Z" fill="#00FFF2"/>
<path d="M53.258 20.8807C52.3568 16.1683 49.8409 11.9174 46.1433 8.85999C42.4458 5.80257 37.798 4.12988 33.0002 4.12988C28.2023 4.12988 23.5545 5.80257 19.857 8.85999C16.1595 11.9174 13.6435 16.1683 12.7423 20.8807C9.02562 21.5423 5.67975 23.5416 3.33643 26.5014C0.993103 29.4612 -0.185502 33.1764 0.0231427 36.9458C0.231788 40.7151 1.81324 44.2776 4.46892 46.9606C7.12459 49.6437 10.6707 51.2616 14.4377 51.5088V47.3838C11.6009 47.1238 8.96607 45.805 7.05773 43.69C5.14939 41.575 4.10751 38.819 4.1395 35.9705C4.17148 33.122 5.27499 30.39 7.23034 28.3184C9.18568 26.2468 11.8495 24.9875 14.6914 24.7912L16.4177 24.6757L16.6033 22.9556C17.0477 18.9175 18.9666 15.1853 21.9923 12.4743C25.018 9.76338 28.9376 8.26427 33.0002 8.26427C37.0627 8.26427 40.9824 9.76338 44.008 12.4743C47.0337 15.1853 48.9526 18.9175 49.397 22.9556L49.5827 24.6757L51.309 24.7912C54.1533 24.9844 56.8204 26.2424 58.7785 28.3146C60.7366 30.3867 61.8418 33.1206 61.8738 35.9714C61.9058 38.8221 60.8622 41.5802 58.9512 43.6957C57.0401 45.8113 54.402 47.1289 51.5627 47.3859V51.5109C55.3313 51.2656 58.8795 49.6485 61.5369 46.9651C64.1944 44.2818 65.777 40.718 65.9857 36.9472C66.1944 33.1764 65.0148 29.4598 62.6697 26.4995C60.3246 23.5393 56.9765 21.5404 53.258 20.8807Z" fill="#00FFF2"/>
</g>
<defs>
<clipPath id="clip0_75_764">
<rect width="66" height="66" fill="white"/>
</clipPath>
</defs>
</svg>
