<svg width="66" height="66" viewBox="0 0 66 66" fill="none" xmlns="http://www.w3.org/2000/svg">
<path d="M27 10H17C13.8174 10 10.7652 11.2643 8.51472 13.5147C6.26428 15.7652 5 18.8174 5 22V24C5 24.5304 5.21071 25.0391 5.58579 25.4142C5.96086 25.7893 6.46957 26 7 26C7.53043 26 8.03914 25.7893 8.41421 25.4142C8.78929 25.0391 9 24.5304 9 24V22C9 19.8783 9.84285 17.8434 11.3431 16.3431C12.8434 14.8429 14.8783 14 17 14H27C27.5304 14 28.0391 13.7893 28.4142 13.4142C28.7893 13.0391 29 12.5304 29 12C29 11.4696 28.7893 10.9609 28.4142 10.5858C28.0391 10.2107 27.5304 10 27 10ZM16.184 61.96C14.2136 61.758 12.3882 60.8321 11.0611 59.3617C9.73398 57.8912 8.99957 55.9808 9 54V42C9 39.8783 9.84285 37.8434 11.3431 36.3431C12.8434 34.8429 14.8783 34 17 34H29C31.1217 34 33.1566 34.8429 34.6569 36.3431C36.1571 37.8434 37 39.8783 37 42V54C37 56.1217 36.1571 58.1566 34.6569 59.6569C33.1566 61.1571 31.1217 62 29 62H17C16.7227 62 16.4507 61.9867 16.184 61.96ZM5 54C5 57.1826 6.26428 60.2348 8.51472 62.4853C10.7652 64.7357 13.8174 66 17 66H29C32.1826 66 35.2348 64.7357 37.4853 62.4853C39.7357 60.2348 41 57.1826 41 54V42C41 38.8174 39.7357 35.7652 37.4853 33.5147C35.2348 31.2643 32.1826 30 29 30H17C13.8174 30 10.7652 31.2643 8.51472 33.5147C6.26428 35.7652 5 38.8174 5 42V54ZM47 66C46.4696 66 45.9609 65.7893 45.5858 65.4142C45.2107 65.0391 45 64.5304 45 64C45 63.4696 45.2107 62.9609 45.5858 62.5858C45.9609 62.2107 46.4696 62 47 62H49C51.1217 62 53.1566 61.1571 54.6569 59.6569C56.1571 58.1566 57 56.1217 57 54V44C57 43.4696 57.2107 42.9609 57.5858 42.5858C57.9609 42.2107 58.4696 42 59 42C59.5304 42 60.0391 42.2107 60.4142 42.5858C60.7893 42.9609 61 43.4696 61 44V54C61 57.1826 59.7357 60.2348 57.4853 62.4853C55.2348 64.7357 52.1826 66 49 66H47ZM61 32C61 32.5304 60.7893 33.0391 60.4142 33.4142C60.0391 33.7893 59.5304 34 59 34C58.4696 34 57.9609 33.7893 57.5858 33.4142C57.2107 33.0391 57 32.5304 57 32V22C57 19.8783 56.1571 17.8434 54.6569 16.3431C53.1566 14.8429 51.1217 14 49 14H39C38.4696 14 37.9609 13.7893 37.5858 13.4142C37.2107 13.0391 37 12.5304 37 12C37 11.4696 37.2107 10.9609 37.5858 10.5858C37.9609 10.2107 38.4696 10 39 10H49C52.1826 10 55.2348 11.2643 57.4853 13.5147C59.7357 15.7652 61 18.8174 61 22V32Z" fill="#00FFF2"/>
</svg>
