<svg width="66" height="66" viewBox="0 0 66 66" fill="none" xmlns="http://www.w3.org/2000/svg">
<path d="M60.5 39.4707C60.5 48.048 53.4655 55 44.7865 55H30.25M39.5477 24.8243C41.2324 24.2392 43.0032 23.9408 44.7865 23.9415C46.585 23.9415 48.3148 24.2413 49.929 24.7913M49.929 24.7913C49.0518 17.0335 42.394 11 34.309 11C25.63 11 18.5955 17.952 18.5955 26.5293C18.5947 28.3715 18.9244 30.199 19.569 31.9248M49.929 24.7913C51.7843 25.4245 53.5044 26.4002 55 27.6677M19.569 31.9248C18.8168 31.7793 18.0526 31.7057 17.2865 31.7048C10.7772 31.7075 5.5 36.9215 5.5 43.3538C5.5 49.786 10.7772 55 17.2865 55H19.25M19.569 31.9248C21.0904 32.221 22.5387 32.8134 23.8315 33.6683" stroke="#00FFF2" stroke-width="5" stroke-linecap="round"/>
</svg>
