<svg width="66" height="66" viewBox="0 0 66 66" fill="none" xmlns="http://www.w3.org/2000/svg">
<g clip-path="url(#clip0_75_769)">
<path d="M19.9525 45.8453C25.7523 45.8453 29.5762 42.8547 29.5762 38.5606C29.5762 34.6624 26.6392 32.8681 24.3952 32.4143V32.1957C26.4412 31.5769 28.6027 29.9269 28.6027 26.7053C28.6027 22.9351 25.1748 20.1589 20.0062 20.1589C14.821 20.1589 11.3973 22.9351 11.3973 26.7053C11.3973 29.8939 13.501 31.5604 15.6048 32.1957V32.4143C13.3525 32.8681 10.4155 34.6418 10.4155 38.5771C10.4155 42.8753 14.1528 45.8453 19.9525 45.8453ZM20.0062 30.8179C17.758 30.8179 16.0874 29.3494 16.0874 27.2457C16.0874 25.1419 17.758 23.7312 20.0062 23.7312C22.2543 23.7312 23.9043 25.1461 23.9043 27.2457C23.9043 29.3494 22.2543 30.8179 20.0062 30.8179ZM20.0062 42.3102C17.3249 42.3102 15.2954 40.6808 15.2954 38.2512C15.2954 35.8216 17.3249 34.1551 20.0062 34.1551C22.6709 34.1551 24.721 35.8216 24.721 38.2512C24.721 40.6808 22.6709 42.3102 20.0062 42.3102ZM55.3079 20.6251H49.9207L40.5693 31.7007H40.3342V20.6251H35.4337V45.3668H40.33V37.4344L42.8669 34.5511L49.7928 45.3709H55.6874L46.4804 31.2882L55.3079 20.6251Z" fill="#00FFF2"/>
<path d="M57.75 12.375C58.844 12.375 59.8932 12.8096 60.6668 13.5832C61.4404 14.3568 61.875 15.406 61.875 16.5V49.5C61.875 50.594 61.4404 51.6432 60.6668 52.4168C59.8932 53.1904 58.844 53.625 57.75 53.625H8.25C7.15598 53.625 6.10677 53.1904 5.33318 52.4168C4.5596 51.6432 4.125 50.594 4.125 49.5V16.5C4.125 15.406 4.5596 14.3568 5.33318 13.5832C6.10677 12.8096 7.15598 12.375 8.25 12.375H57.75ZM8.25 8.25C6.06196 8.25 3.96354 9.11919 2.41637 10.6664C0.869194 12.2135 0 14.312 0 16.5L0 49.5C0 51.688 0.869194 53.7865 2.41637 55.3336C3.96354 56.8808 6.06196 57.75 8.25 57.75H57.75C59.938 57.75 62.0365 56.8808 63.5836 55.3336C65.1308 53.7865 66 51.688 66 49.5V16.5C66 14.312 65.1308 12.2135 63.5836 10.6664C62.0365 9.11919 59.938 8.25 57.75 8.25H8.25Z" fill="#00FFF2"/>
</g>
<defs>
<clipPath id="clip0_75_769">
<rect width="66" height="66" fill="white"/>
</clipPath>
</defs>
</svg>
