<svg width="66" height="66" viewBox="0 0 66 66" fill="none" xmlns="http://www.w3.org/2000/svg">
<path d="M57.75 18.5625H53.625V16.5C53.625 14.859 52.9731 13.2852 51.8127 12.1248C50.6523 10.9644 49.0785 10.3125 47.4375 10.3125H10.3125C8.67147 10.3125 7.09766 10.9644 5.93728 12.1248C4.7769 13.2852 4.125 14.859 4.125 16.5V41.25C4.125 42.891 4.7769 44.4648 5.93728 45.6252C7.09766 46.7856 8.67147 47.4375 10.3125 47.4375H39.1875V49.5C39.1875 51.141 39.8394 52.7148 40.9998 53.8752C42.1602 55.0356 43.734 55.6875 45.375 55.6875H57.75C59.391 55.6875 60.9648 55.0356 62.1252 53.8752C63.2856 52.7148 63.9375 51.141 63.9375 49.5V24.75C63.9375 23.109 63.2856 21.5352 62.1252 20.3748C60.9648 19.2144 59.391 18.5625 57.75 18.5625ZM10.3125 43.3125C9.76549 43.3125 9.24089 43.0952 8.85409 42.7084C8.4673 42.3216 8.25 41.797 8.25 41.25V16.5C8.25 15.953 8.4673 15.4284 8.85409 15.0416C9.24089 14.6548 9.76549 14.4375 10.3125 14.4375H47.4375C47.9845 14.4375 48.5091 14.6548 48.8959 15.0416C49.2827 15.4284 49.5 15.953 49.5 16.5V18.5625H45.375C43.734 18.5625 42.1602 19.2144 40.9998 20.3748C39.8394 21.5352 39.1875 23.109 39.1875 24.75V43.3125H10.3125ZM59.8125 49.5C59.8125 50.047 59.5952 50.5716 59.2084 50.9584C58.8216 51.3452 58.297 51.5625 57.75 51.5625H45.375C44.828 51.5625 44.3034 51.3452 43.9166 50.9584C43.5298 50.5716 43.3125 50.047 43.3125 49.5V24.75C43.3125 24.203 43.5298 23.6784 43.9166 23.2916C44.3034 22.9048 44.828 22.6875 45.375 22.6875H57.75C58.297 22.6875 58.8216 22.9048 59.2084 23.2916C59.5952 23.6784 59.8125 24.203 59.8125 24.75V49.5ZM35.0625 53.625C35.0625 54.172 34.8452 54.6966 34.4584 55.0834C34.0716 55.4702 33.547 55.6875 33 55.6875H22.6875C22.1405 55.6875 21.6159 55.4702 21.2291 55.0834C20.8423 54.6966 20.625 54.172 20.625 53.625C20.625 53.078 20.8423 52.5534 21.2291 52.1666C21.6159 51.7798 22.1405 51.5625 22.6875 51.5625H33C33.547 51.5625 34.0716 51.7798 34.4584 52.1666C34.8452 52.5534 35.0625 53.078 35.0625 53.625ZM55.6875 28.875C55.6875 29.422 55.4702 29.9466 55.0834 30.3334C54.6966 30.7202 54.172 30.9375 53.625 30.9375H49.5C48.953 30.9375 48.4284 30.7202 48.0416 30.3334C47.6548 29.9466 47.4375 29.422 47.4375 28.875C47.4375 28.328 47.6548 27.8034 48.0416 27.4166C48.4284 27.0298 48.953 26.8125 49.5 26.8125H53.625C54.172 26.8125 54.6966 27.0298 55.0834 27.4166C55.4702 27.8034 55.6875 28.328 55.6875 28.875Z" fill="#00FFF2"/>
</svg>
