<svg width="268" height="50" viewBox="0 0 268 50" fill="none" xmlns="http://www.w3.org/2000/svg">
<g clip-path="url(#clip0_75_869)">
<path d="M91.2442 50H84.0776L104.416 2.63192H111.037L131.372 50H124.069L107.624 11.1288L91.2442 50Z" fill="#F8C428"/>
<path d="M84.0776 24.9318C84.0776 28.6067 83.4515 31.9762 82.2024 35.0468C80.9534 38.1174 79.2112 40.759 76.9825 42.9783C74.7504 45.1943 72.1096 46.9197 69.0535 48.1512C65.9975 49.3826 62.6851 50 59.1164 50C55.5478 50 52.2354 49.3826 49.1793 48.1512C46.1233 46.9197 43.4792 45.1943 41.2504 42.9783C39.0184 40.759 37.2795 38.1174 36.0304 35.0468C34.7814 31.9795 34.1553 28.6067 34.1553 24.9318C34.1553 21.2568 34.7814 17.8971 36.0304 14.8525C37.2795 11.8047 39.0184 9.18573 41.2504 6.98921C43.4825 4.7927 46.1233 3.08032 49.1793 1.84884C52.2354 0.617364 55.5478 0 59.1164 0C62.6851 0 65.9975 0.614115 69.0535 1.84884C72.1096 3.08032 74.7537 4.7927 76.9825 6.98921C79.2112 9.18573 80.9534 11.8047 82.2024 14.8525C83.4515 17.9003 84.0776 21.2601 84.0776 24.9318ZM77.1836 24.9318C77.1836 22.3323 76.7586 19.8791 75.9119 17.5721C75.0651 15.2651 73.8615 13.2376 72.2978 11.4895C70.7373 9.74136 68.8394 8.35391 66.6106 7.32064C64.3786 6.29062 61.8805 5.77398 59.1164 5.77398C56.3523 5.77398 53.851 6.29062 51.6222 7.32064C49.3935 8.35066 47.4956 9.74136 45.9351 11.4895C44.3746 13.2376 43.1678 15.2651 42.321 17.5721C41.4743 19.8791 41.0493 22.3323 41.0493 24.9318C41.0493 27.5312 41.4743 30.0624 42.321 32.3921C43.1678 34.7219 44.3746 36.7592 45.9351 38.5073C47.4956 40.2554 49.3935 41.6331 51.6222 42.6404C53.8543 43.6476 56.3523 44.1513 59.1164 44.1513C61.8805 44.1513 64.3818 43.6476 66.6106 42.6404C68.8427 41.6331 70.7373 40.2554 72.2978 38.5073C73.8583 36.7592 75.0619 34.7219 75.9119 32.3921C76.7619 30.0624 77.1836 27.5767 77.1836 24.9318Z" fill="#E62B39"/>
<path d="M178.667 24.9318C178.667 28.6067 178.041 31.9762 176.795 35.0468C175.546 38.1174 173.804 40.759 171.575 42.9783C169.343 45.1943 166.702 46.9197 163.646 48.1512C160.59 49.3826 157.277 50 153.709 50C150.14 50 146.828 49.3826 143.772 48.1512C140.716 46.9197 138.071 45.1943 135.843 42.9783C133.614 40.759 131.872 38.1174 130.623 35.0468C129.374 31.9795 128.748 28.6067 128.748 24.9318C128.748 21.2568 129.374 17.8971 130.623 14.8525C131.872 11.8047 133.614 9.18573 135.843 6.98921C138.075 4.7927 140.716 3.08032 143.772 1.84884C146.828 0.617364 150.14 0 153.709 0C157.277 0 160.59 0.614115 163.646 1.84884C166.702 3.08032 169.346 4.7927 171.575 6.98921C173.804 9.18573 175.546 11.8047 176.795 14.8525C178.044 17.9003 178.667 21.2601 178.667 24.9318ZM171.773 24.9318C171.773 22.3323 171.348 19.8791 170.501 17.5721C169.654 15.2651 168.451 13.2376 166.887 11.4895C165.326 9.74136 163.428 8.35391 161.2 7.32064C158.968 6.29062 156.47 5.77398 153.705 5.77398C150.941 5.77398 148.44 6.29062 146.211 7.32064C143.982 8.35066 142.085 9.74136 140.524 11.4895C138.964 13.2376 137.757 15.2651 136.91 17.5721C136.063 19.8791 135.638 22.3323 135.638 24.9318C135.638 27.5312 136.06 30.0624 136.91 32.3921C137.757 34.7219 138.964 36.7592 140.524 38.5073C142.085 40.2554 143.982 41.6331 146.211 42.6404C148.443 43.6476 150.941 44.1513 153.705 44.1513C156.47 44.1513 158.971 43.6476 161.2 42.6404C163.432 41.6331 165.326 40.2554 166.887 38.5073C168.447 36.7592 169.651 34.7219 170.501 32.3921C171.351 30.0624 171.773 27.5767 171.773 24.9318Z" fill="#39B2E5"/>
<path d="M236.473 50V2.63192H262.712V8.3864H242.883V22.3681H251.61C254.034 22.3681 256.246 22.6573 258.251 23.2389C260.256 23.8173 261.985 24.6881 263.442 25.8481C264.895 27.0081 266.021 28.4345 266.813 30.1306C267.608 31.8267 268.003 33.8121 268.003 36.0866C268.003 38.3611 267.585 40.3691 266.748 42.1075C265.911 43.8459 264.753 45.308 263.277 46.4908C261.8 47.6735 260.049 48.5541 258.021 49.1324C255.993 49.7141 253.79 50.0032 251.412 50.0032H236.473V50ZM251.013 44.2455C254.319 44.2455 256.931 43.5339 258.845 42.1042C260.762 40.6778 261.719 38.6697 261.719 36.0833C261.719 33.3637 260.74 31.3556 258.777 30.0624C256.817 28.7692 254.248 28.1226 251.075 28.1226H242.877V44.2455H251.007H251.013Z" fill="#E62B39"/>
<path d="M194.43 44.6972C194.43 46.0911 193.934 47.3226 192.941 48.3916C191.949 49.4639 190.693 50 189.175 50C187.656 50 186.469 49.4769 185.45 48.4338C184.432 47.3908 183.922 46.1723 183.922 44.7784C183.922 43.3844 184.419 42.088 185.411 41.0417C186.404 39.9987 187.66 39.4756 189.175 39.4756C190.69 39.4756 191.945 39.9857 192.941 41.0027C193.934 42.0197 194.43 43.2512 194.43 44.7004" fill="#46B276"/>
<path d="M216.05 50H209.597V8.31817H194.431V2.63192H231.217V8.31817H216.05V50Z" fill="#46B276"/>
<path d="M5.8526 50H0V2.63192H5.8526V25.2469L24.6238 2.63192H31.2874L12.7174 24.8505L34.1553 50H26.8266L5.8526 25.2469V50Z" fill="#39B2E5"/>
<path d="M91.2442 50H84.0776L104.416 2.63192H111.037L131.372 50H124.069L107.624 11.1288L91.2442 50Z" fill="#F8C428"/>
<path d="M84.0776 24.9318C84.0776 28.6067 83.4515 31.9762 82.2024 35.0468C80.9534 38.1174 79.2112 40.759 76.9825 42.9783C74.7504 45.1943 72.1096 46.9197 69.0535 48.1512C65.9975 49.3826 62.6851 50 59.1164 50C55.5478 50 52.2354 49.3826 49.1793 48.1512C46.1233 46.9197 43.4792 45.1943 41.2504 42.9783C39.0184 40.759 37.2795 38.1174 36.0304 35.0468C34.7814 31.9795 34.1553 28.6067 34.1553 24.9318C34.1553 21.2568 34.7814 17.8971 36.0304 14.8525C37.2795 11.8047 39.0184 9.18573 41.2504 6.98921C43.4825 4.7927 46.1233 3.08032 49.1793 1.84884C52.2354 0.617364 55.5478 0 59.1164 0C62.6851 0 65.9975 0.614115 69.0535 1.84884C72.1096 3.08032 74.7537 4.7927 76.9825 6.98921C79.2112 9.18573 80.9534 11.8047 82.2024 14.8525C83.4515 17.9003 84.0776 21.2601 84.0776 24.9318ZM77.1836 24.9318C77.1836 22.3323 76.7586 19.8791 75.9119 17.5721C75.0651 15.2651 73.8615 13.2376 72.2978 11.4895C70.7373 9.74136 68.8394 8.35391 66.6106 7.32064C64.3786 6.29062 61.8805 5.77398 59.1164 5.77398C56.3523 5.77398 53.851 6.29062 51.6222 7.32064C49.3935 8.35066 47.4956 9.74136 45.9351 11.4895C44.3746 13.2376 43.1678 15.2651 42.321 17.5721C41.4743 19.8791 41.0493 22.3323 41.0493 24.9318C41.0493 27.5312 41.4743 30.0624 42.321 32.3921C43.1678 34.7219 44.3746 36.7592 45.9351 38.5073C47.4956 40.2554 49.3935 41.6331 51.6222 42.6404C53.8543 43.6476 56.3523 44.1513 59.1164 44.1513C61.8805 44.1513 64.3818 43.6476 66.6106 42.6404C68.8427 41.6331 70.7373 40.2554 72.2978 38.5073C73.8583 36.7592 75.0619 34.7219 75.9119 32.3921C76.7619 30.0624 77.1836 27.5767 77.1836 24.9318Z" fill="#E62B39"/>
<path d="M178.667 24.9318C178.667 28.6067 178.041 31.9762 176.795 35.0468C175.546 38.1174 173.804 40.759 171.575 42.9783C169.343 45.1943 166.702 46.9197 163.646 48.1512C160.59 49.3826 157.277 50 153.709 50C150.14 50 146.828 49.3826 143.772 48.1512C140.716 46.9197 138.071 45.1943 135.843 42.9783C133.614 40.759 131.872 38.1174 130.623 35.0468C129.374 31.9795 128.748 28.6067 128.748 24.9318C128.748 21.2568 129.374 17.8971 130.623 14.8525C131.872 11.8047 133.614 9.18573 135.843 6.98921C138.075 4.7927 140.716 3.08032 143.772 1.84884C146.828 0.617364 150.14 0 153.709 0C157.277 0 160.59 0.614115 163.646 1.84884C166.702 3.08032 169.346 4.7927 171.575 6.98921C173.804 9.18573 175.546 11.8047 176.795 14.8525C178.044 17.9003 178.667 21.2601 178.667 24.9318ZM171.773 24.9318C171.773 22.3323 171.348 19.8791 170.501 17.5721C169.654 15.2651 168.451 13.2376 166.887 11.4895C165.326 9.74136 163.428 8.35391 161.2 7.32064C158.968 6.29062 156.47 5.77398 153.705 5.77398C150.941 5.77398 148.44 6.29062 146.211 7.32064C143.982 8.35066 142.085 9.74136 140.524 11.4895C138.964 13.2376 137.757 15.2651 136.91 17.5721C136.063 19.8791 135.638 22.3323 135.638 24.9318C135.638 27.5312 136.06 30.0624 136.91 32.3921C137.757 34.7219 138.964 36.7592 140.524 38.5073C142.085 40.2554 143.982 41.6331 146.211 42.6404C148.443 43.6476 150.941 44.1513 153.705 44.1513C156.47 44.1513 158.971 43.6476 161.2 42.6404C163.432 41.6331 165.326 40.2554 166.887 38.5073C168.447 36.7592 169.651 34.7219 170.501 32.3921C171.351 30.0624 171.773 27.5767 171.773 24.9318Z" fill="#39B2E5"/>
<path d="M236.473 50V2.63192H262.712V8.3864H242.883V22.3681H251.61C254.034 22.3681 256.246 22.6573 258.251 23.2389C260.256 23.8173 261.985 24.6881 263.442 25.8481C264.895 27.0081 266.021 28.4345 266.813 30.1306C267.608 31.8267 268.003 33.8121 268.003 36.0866C268.003 38.3611 267.585 40.3691 266.748 42.1075C265.911 43.8459 264.753 45.308 263.277 46.4908C261.8 47.6735 260.049 48.5541 258.021 49.1324C255.993 49.7141 253.79 50.0032 251.412 50.0032H236.473V50ZM251.013 44.2455C254.319 44.2455 256.931 43.5339 258.845 42.1042C260.762 40.6778 261.719 38.6697 261.719 36.0833C261.719 33.3637 260.74 31.3556 258.777 30.0624C256.817 28.7692 254.248 28.1226 251.075 28.1226H242.877V44.2455H251.007H251.013Z" fill="#E62B39"/>
<path d="M194.43 44.6972C194.43 46.0911 193.934 47.3226 192.941 48.3916C191.949 49.4639 190.693 50 189.175 50C187.656 50 186.469 49.4769 185.45 48.4338C184.432 47.3908 183.922 46.1723 183.922 44.7784C183.922 43.3844 184.419 42.088 185.411 41.0417C186.404 39.9987 187.66 39.4756 189.175 39.4756C190.69 39.4756 191.945 39.9857 192.941 41.0027C193.934 42.0197 194.43 43.2512 194.43 44.7004" fill="#46B276"/>
<path d="M216.05 50H209.597V8.31817H194.431V2.63192H231.217V8.31817H216.05V50Z" fill="#46B276"/>
<path d="M5.8526 50H0V2.63192H5.8526V25.2469L24.6238 2.63192H31.2874L12.7174 24.8505L34.1553 50H26.8266L5.8526 25.2469V50Z" fill="#39B2E5"/>
</g>
<defs>
<clipPath id="clip0_75_869">
<rect width="268" height="50" fill="white"/>
</clipPath>
</defs>
</svg>
